<?xml version="1.0" encoding="UTF-8" standalone="no"?>
<!-- Created with Inkscape (http://www.inkscape.org/) -->

<svg
   width="2.5028813in"
   height="1.3948061in"
   viewBox="0 0 63.573185 35.428076"
   version="1.1"
   id="svg1"
   inkscape:version="1.4.3 (unknown)"
   xml:space="preserve"
   sodipodi:docname="batman.svg"
   xmlns:inkscape="http://www.inkscape.org/namespaces/inkscape"
   xmlns:sodipodi="http://sodipodi.sourceforge.net/DTD/sodipodi-0.dtd"
   xmlns="http://www.w3.org/2000/svg"
   xmlns:svg="http://www.w3.org/2000/svg"><sodipodi:namedview
     id="namedview1"
     pagecolor="#d5d5d5"
     bordercolor="#ffffff"
     borderopacity="1"
     inkscape:showpageshadow="0"
     inkscape:pageopacity="0"
     inkscape:pagecheckerboard="0"
     inkscape:deskcolor="#505050"
     inkscape:document-units="mm"
     inkscape:zoom="1"
     inkscape:cx="405.5"
     inkscape:cy="480"
     inkscape:window-width="2560"
     inkscape:window-height="1368"
     inkscape:window-x="1920"
     inkscape:window-y="0"
     inkscape:window-maximized="1"
     inkscape:current-layer="layer1"><inkscape:page
       x="1.5477386e-21"
       y="-4.3439665e-21"
       width="63.573189"
       height="35.428074"
       id="page2"
       margin="0"
       bleed="0" /></sodipodi:namedview><defs
     id="defs1" /><g
     inkscape:label="Layer 1"
     inkscape:groupmode="layer"
     id="layer1"
     transform="translate(-76.163437,-41.723889)"><path
       style="fill:#d6c300;fill-opacity:1;stroke:none;stroke-width:0.999998"
       d="m 103.06297,77.050893 c -13.276286,-1.19698 -24.068375,-7.0686 -26.473124,-14.40314 l -0.426406,-1.30055 0.0034,-2.0859 0.0034,-2.0859 0.460499,-1.29533 c 0.253274,-0.71243 0.784361,-1.81871 1.180194,-2.45838 l 0.719694,-1.16306 1.573614,-1.56967 1.573609,-1.56965 1.490284,-0.98306 c 5.449511,-3.59469 12.569577,-5.694719 21.161966,-6.241627 l 2.6825,-0.17074 2.30993,0.09493 c 15.89771,0.653425 28.13466,6.865257 30.17232,15.316357 l 0.24177,1.00272 -0.003,1.53015 -0.003,1.53015 -0.31092,1.11169 c -2.02742,7.24885 -11.4061,12.82454 -24.46554,14.54495 l -1.83224,0.24137 -4.24729,0.0479 c -2.336,0.0263 -4.95144,-0.0156 -5.81208,-0.0932 z m 5.32252,-5.38662 c 1.45878,-2.85299 3.6338,-5.48429 5.11921,-6.19309 l 0.68042,-0.32468 0.73535,0.003 0.73533,0.003 0.59611,0.27651 c 0.73833,0.34249 1.47538,1.10323 1.7828,1.84008 0.28728,0.68863 0.3431,0.6899 0.98225,0.0223 0.66191,-0.69141 2.02404,-1.62144 3.09646,-2.11416 l 0.84475,-0.38812 0.96868,0.003 0.96869,0.003 0.74513,0.3843 c 2.12367,1.09524 2.28884,2.88797 0.52357,5.68244 -0.7694,1.21796 -0.78262,1.19754 0.48238,0.74568 5.14917,-1.83934 8.90987,-5.13496 10.17844,-8.91969 l 0.39951,-1.19194 0.077,-1.49309 0.0771,-1.49307 -0.17421,-0.81217 c -0.95264,-4.44091 -6.40486,-8.69885 -14.89622,-11.63329 -0.93123,-0.32181 -1.72443,-0.58511 -1.76269,-0.58511 -0.0383,0 0.17006,0.27989 0.46294,0.62197 0.72698,0.84913 1.13422,1.74295 1.23387,2.70818 l 0.0837,0.81052 -0.31396,1.02127 -0.31394,1.02126 -0.56344,0.73833 c -1.70093,2.22888 -5.32144,2.90044 -7.7328,1.43435 l -0.45427,-0.2762 -0.24343,-0.87374 c -0.33318,-1.19598 -0.64673,-3.25363 -0.9271,-6.08414 -0.29303,-2.95821 -0.43477,-2.98897 -1.6772,-0.36395 l -0.55424,1.17097 -1.59752,0.005 -1.59754,0.005 -0.5287,-1.14402 c -0.29078,-0.6292 -0.70475,-1.37479 -0.91996,-1.65686 l -0.39127,-0.51287 -0.10998,0.20419 c -0.0606,0.11228 -0.15584,0.74057 -0.21184,1.39615 -0.27972,3.27497 -0.98882,6.99096 -1.47581,7.73403 l -0.23488,0.35838 -0.78802,0.27457 -0.78805,0.27459 h -1.788326 -1.788329 l -0.745141,-0.39718 c -1.041488,-0.55515 -1.913249,-1.51181 -2.475139,-2.71616 l -0.479352,-1.02744 -0.0045,-1.05846 -0.0045,-1.05846 0.313715,-0.69663 c 0.172542,-0.38315 0.604705,-1.01287 0.96036,-1.39936 l 0.646645,-0.70272 -0.372571,0.11289 c -6.070426,1.83888 -10.719847,4.26795 -13.567747,7.08842 l -1.286096,1.27371 -0.609645,1.03568 c -0.335299,0.56962 -0.757684,1.52987 -0.938624,2.13389 l -0.328979,1.09822 0.08498,1.65816 0.08498,1.65814 0.304473,0.96846 c 0.167467,0.53264 0.617603,1.50481 1.000306,2.16039 l 0.695828,1.19194 1.281894,1.27929 c 2.65912,2.65377 9.008172,5.97453 7.729522,4.0428 -0.634337,-0.95832 -1.151067,-2.07572 -1.316484,-2.84686 l -0.157559,-0.73451 0.162364,-0.60285 c 0.223962,-0.83152 0.769164,-1.42699 1.716974,-1.87527 l 0.803545,-0.38005 h 0.749158 c 1.406447,0 3.208473,0.90791 4.846394,2.44178 0.875305,0.81967 0.796599,0.80601 1.056726,0.18358 0.756046,-1.80904 2.765208,-2.62162 4.493228,-1.81721 l 0.76962,0.35825 0.87822,0.87801 c 1.079,1.07875 2.48673,3.15776 3.34577,4.94117 0.78271,1.62498 0.66236,1.61412 1.42216,0.12823 z"
       id="path8"
       inkscape:export-filename="batman 02 logo.svg"
       inkscape:export-xdpi="96"
       inkscape:export-ydpi="96" /></g></svg>
