<?xml version="1.0" encoding="UTF-8" standalone="no"?>
<!-- Created with Inkscape (http://www.inkscape.org/) -->

<svg
   width="6.6684794in"
   height="7.4751005in"
   viewBox="0 0 169.37938 189.86755"
   version="1.1"
   id="svg1"
   inkscape:version="1.4.3 (unknown)"
   xml:space="preserve"
   sodipodi:docname="batman.svg"
   xmlns:inkscape="http://www.inkscape.org/namespaces/inkscape"
   xmlns:sodipodi="http://sodipodi.sourceforge.net/DTD/sodipodi-0.dtd"
   xmlns="http://www.w3.org/2000/svg"
   xmlns:svg="http://www.w3.org/2000/svg"><sodipodi:namedview
     id="namedview1"
     pagecolor="#d5d5d5"
     bordercolor="#ffffff"
     borderopacity="1"
     inkscape:showpageshadow="0"
     inkscape:pageopacity="0"
     inkscape:pagecheckerboard="0"
     inkscape:deskcolor="#505050"
     inkscape:document-units="mm"
     inkscape:zoom="1"
     inkscape:cx="405.5"
     inkscape:cy="480"
     inkscape:window-width="2560"
     inkscape:window-height="1368"
     inkscape:window-x="1920"
     inkscape:window-y="0"
     inkscape:window-maximized="1"
     inkscape:current-layer="layer1"><inkscape:page
       x="0"
       y="0"
       width="169.37938"
       height="189.86755"
       id="page2"
       margin="0"
       bleed="0" /></sodipodi:namedview><defs
     id="defs1" /><g
     inkscape:label="Layer 1"
     inkscape:groupmode="layer"
     id="layer1"
     transform="translate(-23.260335,-73.326284)"><path
       id="path5"
       style="display:inline;fill:#4b4b4b;fill-opacity:1;stroke:#000000;stroke-width:0.67;stroke-linecap:round;stroke-linejoin:round;stroke-opacity:1"
       d="m 136.58889,231.56736 c 8.62636,2.96747 16.2952,1.46763 22.60474,-6.37419 l 14.78,-16.80469 -0.2898,-10.43049 -54.19338,23.17888 z m -37.384673,-10.43049 -54.193378,-23.17888 -0.289803,10.43049 14.780012,16.80469 c 6.309528,7.84182 13.978375,9.34166 22.604725,6.37419 z M 36.316713,241.99785 C 20.313444,183.23787 20.987006,126.25578 29.651219,73.661214 l 23.184333,47.806446 c 40.900314,-30.754057 77.409898,-23.098263 112.154218,0 l 20.28629,-46.937236 c 10.62847,56.602426 8.6785,110.959226 -2.31845,163.700866 l -72.74083,24.62757 z"
       inkscape:export-filename="batman 01 BLACK.svg"
       inkscape:export-xdpi="96"
       inkscape:export-ydpi="96" /></g></svg>
