<?xml version="1.0" encoding="UTF-8" standalone="no"?>
<!-- Created with Inkscape (http://www.inkscape.org/) -->

<svg
   width="100mm"
   height="100mm"
   viewBox="0 0 100 100"
   version="1.1"
   id="svg1"
   inkscape:version="1.4.3 (unknown)"
   xml:space="preserve"
   sodipodi:docname="Flash.svg"
   xmlns:inkscape="http://www.inkscape.org/namespaces/inkscape"
   xmlns:sodipodi="http://sodipodi.sourceforge.net/DTD/sodipodi-0.dtd"
   xmlns="http://www.w3.org/2000/svg"
   xmlns:svg="http://www.w3.org/2000/svg"><sodipodi:namedview
     id="namedview1"
     pagecolor="#d5d5d5"
     bordercolor="#ffffff"
     borderopacity="1"
     inkscape:showpageshadow="0"
     inkscape:pageopacity="0"
     inkscape:pagecheckerboard="0"
     inkscape:deskcolor="#505050"
     inkscape:document-units="mm"
     inkscape:zoom="4"
     inkscape:cx="218.625"
     inkscape:cy="198.5"
     inkscape:window-width="2560"
     inkscape:window-height="1368"
     inkscape:window-x="1920"
     inkscape:window-y="0"
     inkscape:window-maximized="1"
     inkscape:current-layer="layer1"
     showgrid="false" /><defs
     id="defs1" /><g
     inkscape:label="Layer 1"
     inkscape:groupmode="layer"
     id="layer1"><path
       id="path2"
       style="fill:#bf0000;fill-opacity:1;stroke:#008ed3;stroke-width:0.199999;stroke-linejoin:round;stroke-opacity:1"
       d="m 50.747145,64.382546 c 6.794933,7.066046 16.405558,5.4361 23.717583,-1.434813 -9.698779,-7.606342 -9.596094,-4.358255 -23.717583,1.434813 z m -31.595865,-1.422 c 7.312025,6.870913 16.922649,8.500859 23.717584,1.434814 C 28.885594,58.002716 27.652141,55.953665 19.15128,62.960489 Z M 8.6549539,41.816809 C 8.8372856,39.991805 46.909276,53.176334 47.228604,53.425772 47.454447,53.15709 83.878519,39.432517 86.453833,41.816809 84.715893,57.777543 78.580215,68.015887 69.903654,74.948009 61.226615,74.685622 53.176692,73.063219 46.577018,68.295679 40.197458,72.49682 32.452625,74.745753 23.641336,75.46976 12.14077,66.490323 9.1102863,54.596582 8.6549539,41.816809 Z"
       sodipodi:nodetypes="cccccccccccccc"
       inkscape:export-filename="Flash BASIS ROOD.svg"
       inkscape:export-xdpi="96"
       inkscape:export-ydpi="96" /><path
       style="fill:#ffff00;fill-opacity:1;stroke:#008ed3;stroke-width:0.199999;stroke-linejoin:round;stroke-opacity:1"
       d="m 86.975098,29.555655 -4.430756,16.174286 9.122146,4.8262 -16.028915,21.522236 3.518544,-20.870046 -7.688667,-3.00007 z"
       id="path4"
       inkscape:export-filename="Flash BLIKSEMx2.svg"
       inkscape:export-xdpi="96"
       inkscape:export-ydpi="96" /><path
       style="fill:#ffff00;fill-opacity:1;stroke:#008ed3;stroke-width:0.199999;stroke-linejoin:round;stroke-opacity:1"
       d="M 6.5698932,32.686162 11.000649,48.860449 1.8785039,53.686647 17.907418,75.208884 14.388874,54.338838 22.077542,51.338767 Z"
       id="path5" /></g></svg>
