<?xml version="1.0" encoding="UTF-8" standalone="no"?>
<!-- Created with Inkscape (http://www.inkscape.org/) -->

<svg
   width="8.5in"
   height="11in"
   viewBox="0 0 215.9 279.4"
   version="1.1"
   id="svg1"
   inkscape:version="1.4.3 (unknown)"
   xml:space="preserve"
   sodipodi:docname="pestilence mask.svg"
   xmlns:inkscape="http://www.inkscape.org/namespaces/inkscape"
   xmlns:sodipodi="http://sodipodi.sourceforge.net/DTD/sodipodi-0.dtd"
   xmlns="http://www.w3.org/2000/svg"
   xmlns:svg="http://www.w3.org/2000/svg"><sodipodi:namedview
     id="namedview1"
     pagecolor="#d5d5d5"
     bordercolor="#ffffff"
     borderopacity="1"
     inkscape:showpageshadow="0"
     inkscape:pageopacity="0"
     inkscape:pagecheckerboard="0"
     inkscape:deskcolor="#505050"
     inkscape:document-units="mm"
     inkscape:zoom="0.5"
     inkscape:cx="-7"
     inkscape:cy="686"
     inkscape:window-width="2560"
     inkscape:window-height="1368"
     inkscape:window-x="1920"
     inkscape:window-y="0"
     inkscape:window-maximized="1"
     inkscape:current-layer="layer1" /><defs
     id="defs1" /><g
     inkscape:label="Layer 1"
     inkscape:groupmode="layer"
     id="layer1"><path
       style="display:inline;fill:none;stroke:#00ff00;stroke-width:3;stroke-linecap:round;stroke-linejoin:round;stroke-dasharray:none;stroke-opacity:1"
       d="M 20.95821,52.891671 C 143.71061,-34.637047 250.33649,8.7559793 193.78765,151.56041 L 146.99957,94.905453 c 13.69997,-11.668219 -11.65176,-50.453555 -37.55778,-24.508038 -25.906027,25.945518 9.9432,54.987185 30.87378,38.512635 l 41.6955,60.4744 C 165.77845,198.0302 160.15541,228.37349 165.14188,260.41429 148.82512,250.52627 132.9266,214.06839 129.8121,178.93303 126.54083,142.02844 122.27472,129.777 94.800621,122.59635 68.483936,115.71822 41.712739,89.509906 20.95821,52.891671 Z"
       id="path1"
       sodipodi:nodetypes="ccczcccssc" /><path
       style="display:inline;fill:none;stroke:#00ff00;stroke-width:3;stroke-linecap:round;stroke-linejoin:round;stroke-dasharray:none;stroke-opacity:1"
       d="m 2.937585,72.092226 c 37.638809,16.322567 58.96342,54.547174 81.162993,98.668734 30.032842,59.69013 52.941632,92.29392 94.212742,99.30532 -18.18007,6.67575 -45.26904,3.50488 -79.571582,-7.63886 C 67.736594,249.8838 47.002096,245.16549 33.811351,246.19479 32.916753,231.05141 34.153061,217.39068 39.69965,200.67986 43.72646,188.54785 45.376492,164.51921 36.994214,134.15804 28.005803,101.60142 15.106724,84.502537 2.937585,72.092226 Z"
       id="path2"
       sodipodi:nodetypes="cscccssc" /></g></svg>
