<?xml version="1.0" encoding="UTF-8" standalone="no"?>
<!-- Created with Inkscape (http://www.inkscape.org/) -->

<svg
   width="8.5in"
   height="11in"
   viewBox="0 0 215.9 279.4"
   version="1.1"
   id="svg1"
   inkscape:version="1.4.3 (unknown)"
   xml:space="preserve"
   sodipodi:docname="nazgul.svg"
   xmlns:inkscape="http://www.inkscape.org/namespaces/inkscape"
   xmlns:sodipodi="http://sodipodi.sourceforge.net/DTD/sodipodi-0.dtd"
   xmlns="http://www.w3.org/2000/svg"
   xmlns:svg="http://www.w3.org/2000/svg"><sodipodi:namedview
     id="namedview1"
     pagecolor="#d5d5d5"
     bordercolor="#ffffff"
     borderopacity="1"
     inkscape:showpageshadow="0"
     inkscape:pageopacity="0"
     inkscape:pagecheckerboard="0"
     inkscape:deskcolor="#505050"
     inkscape:document-units="mm"
     inkscape:zoom="0.5162493"
     inkscape:cx="-329.29827"
     inkscape:cy="565.6182"
     inkscape:window-width="2560"
     inkscape:window-height="1368"
     inkscape:window-x="1920"
     inkscape:window-y="0"
     inkscape:window-maximized="1"
     inkscape:current-layer="layer1"
     showgrid="false" /><defs
     id="defs1" /><g
     inkscape:label="Layer 1"
     inkscape:groupmode="layer"
     id="layer1"><path
       style="fill:none;stroke:#343434;stroke-width:1"
       d="m 167.41746,200.00071 c 0.15429,-4.76771 0.41313,-9.60687 1.03823,-14.34421 0.30149,-2.285 0.52049,-5.44974 1.29268,-7.07397 0.71215,1.37953 1.07163,3.9303 1.37951,5.97386 0.79213,5.25774 1.45814,10.71482 1.64921,16.02483 0.0494,1.3724 1.0185,5.20823 0.12342,6.28699 -0.78292,0.94355 -4.46753,0.41347 -5.73595,0.33397 -0.11016,-2.26596 0.17898,-4.91642 0.2529,-7.20147 z"
       id="path7" /><path
       style="fill:none;stroke:#343434;stroke-width:1"
       d="m 161.73412,207.3388 c -0.58315,0.006 -1.48887,0.14236 -1.80154,-0.47518 -0.39075,-0.77177 -0.153,-2.06723 -0.16247,-2.92496 -0.026,-2.34584 0.034,-5.16715 0.28126,-7.49027 0.15238,-1.43167 -0.0354,-2.88645 0.10546,-4.06562 0.0638,-0.53333 0.10482,-0.94118 0.1052,-1.49861 9e-4,-1.95377 5.7e-4,-4.25043 0.23469,-6.20623 0.45692,-3.81709 0.2859,-7.72728 0.69401,-11.55939 0.30642,-2.87728 0.64479,-8.65687 1.31404,-10.71079 l 0.21387,-0.002 c 0.3939,1.19792 0.49628,2.39149 0.77566,4.05554 0.3299,1.96491 0.42672,4.00001 0.71313,5.98151 0.83934,5.80722 1.32017,11.57556 1.39266,17.52517 0.0179,1.49615 0.24838,3.2287 0.26759,4.70309 0.0157,1.23428 0.12462,1.32105 0.22404,2.56442 0.14023,1.75395 0.29361,5.30729 0.316,7.26952 0.0113,0.9906 0.0927,1.98503 0.0274,2.3626 -1.35438,0.73273 -3.12199,0.45692 -4.70097,0.4717 z"
       id="path6" /><path
       style="fill:none;stroke:#343434;stroke-width:1"
       d="m 177.80588,153.64386 c 0.008,5.62807 -0.51138,11.79922 -1.17557,17.34318 -0.28316,2.36353 -0.36706,5.81429 -1.27466,7.50416 -0.82867,-1.63749 -1.1046,-4.92561 -1.46971,-7.25377 -0.94064,-5.99789 -1.18203,-12.58455 -1.67335,-18.58886 -0.12973,-1.58551 -0.11957,-3.51329 -0.35364,-5.12938 -0.10459,-0.72225 -0.38228,-1.85538 0.18746,-2.44046 0.8134,-0.83531 3.66379,-0.42668 4.78559,-0.40264 0.60161,0.0129 1.11705,0.19241 1.64441,0.25673 -0.35071,1.72569 -0.67362,6.45257 -0.6705,8.71089 z"
       id="path8" /><path
       style="fill:none;stroke:#343434;stroke-width:1"
       d="m 182.6549,196.57745 c -1.24231,-3.80179 -1.15052,-9.00409 -1.76392,-13.23962 -1.18495,-8.18185 -1.25809,-16.73735 -1.73015,-25.00573 -0.1498,-2.62401 -0.29251,-5.28661 -0.32735,-7.91071 -0.0228,-1.71555 -0.31841,-4.5045 -0.161,-5.54597 0.50373,-0.0566 0.83674,-0.20109 1.36773,-0.23668 1.08285,-0.0726 3.91631,-0.52862 4.79289,0.14692 0.53438,0.41183 0.36318,1.52538 0.37122,2.12832 0.0286,2.14293 -0.15707,4.27016 -0.12869,6.41933 0.0105,0.79432 -0.007,1.63638 -0.0919,2.35435 -0.53932,4.57758 0.13225,9.65909 -0.41905,14.33826 -0.6079,5.15954 -0.6064,10.82999 -0.77409,16.05434 -0.0573,1.78355 -0.23066,3.59587 -0.43913,5.35386 -0.2064,1.74064 -0.35331,3.27754 -0.49122,4.49884"
       id="path5" /><path
       style="fill:none;stroke:#343434;stroke-width:1"
       d="m 107.81049,32.190063 c 1.31044,1.662647 1.72049,4.827707 2.54938,7.102435 0.51978,1.426444 0.82903,3.159807 1.18846,4.775622 0.36027,1.61959 0.7767,3.405637 1.1139,5.011334 0.10822,0.516188 0.15942,0.965261 0.20577,1.488148 0.0536,0.605281 0.15724,1.062414 0.27989,1.690778 0.69129,3.54129 0.78062,7.34586 0.99601,10.954098 0.28795,4.823573 0.67867,9.639897 1.05849,14.446295 0.53297,6.744756 1.29267,13.670862 1.87534,20.400238 0.46001,5.312569 1.01659,10.982029 1.98205,16.213009 0.1007,0.54573 0.15503,0.95123 0.20269,1.48882 0.0577,0.65015 0.2079,1.21389 0.29398,1.90678 0.55657,4.47947 1.43067,8.872 2.10771,13.33635 0.61724,4.06998 1.423,8.18864 2.29484,12.19909 0.31346,1.44269 0.31749,2.41163 0.67384,4.01357 l 0.51091,2.29676 c 0.28017,1.25948 0.39197,2.13629 0.80829,3.54543 0.27631,0.93535 0.51848,1.44161 0.74746,2.46329 3.01685,13.46007 7.39067,27.60871 14.48577,39.50796 1.40098,2.34956 2.87838,4.72452 4.54922,6.87667 4.45146,5.73375 10.32081,9.57288 16.40479,13.44276 7.16214,4.55564 14.36799,8.80561 22.19863,12.12289 5.23311,2.21692 10.69291,3.51207 16.04247,5.13433 1.20623,0.36578 4.98661,0.78688 5.29537,2.21139 0.27067,1.25041 -0.29723,3.00567 -0.47619,4.25997 -0.43847,3.07281 -0.88199,6.20953 -1.2443,9.26116 -0.12777,1.07623 -0.0405,3.39197 -0.95978,4.11461 -0.68571,0.53902 -1.45605,0.36853 -2.2429,0.54227 -1.55639,0.34374 -3.46091,0.56981 -5.05759,0.90513 -2.5507,0.53571 -5.3014,0.77245 -7.81814,1.301 -0.60443,0.12699 -1.11587,0.16341 -1.70335,0.2232 -1.81134,0.18441 -4.0038,0.61299 -5.90583,1.03215 -1.37803,0.30406 -3.06848,0.49514 -4.43171,0.76353 -0.58339,0.11488 -1.1047,0.12604 -1.70821,0.20131 -5.37926,0.67056 -10.75158,2.0339 -16.05386,2.69487 -1.32545,0.16521 -4.63494,1.4936 -5.80048,0.80882 -0.60977,-0.35825 -0.12302,-1.83266 -0.031,-2.39744 0.33362,-2.04692 0.53521,-4.94344 0.90329,-6.77489 -2.3216,-0.64585 -5.92595,0.47086 -8.3288,0.97546 -5.14461,1.08049 -10.36485,1.97327 -15.41174,3.61135 -1.67746,0.54447 -5.64182,0.99053 -6.77811,2.42684 -0.61815,0.78135 1.01219,4.75376 1.64754,5.47511 0.77717,0.88235 2.94177,-0.25853 3.96682,-0.32786 2.18549,-0.14784 5.19287,1.00582 7.20573,1.85641 -1.70719,2.15433 -3.02358,3.87734 -5.41471,5.21012 -2.8558,1.59179 -5.8612,2.99929 -8.92504,4.20538 -1.02578,0.40383 -5.13708,2.31606 -6.01952,1.33663 -0.47392,-0.52615 0.31246,-1.84844 0.52497,-2.39501 0.64267,-1.6528 2.4214,-5.5277 0.5683,-6.86942 -0.7811,-0.56557 -1.69661,-0.36039 -2.56307,-0.12865 -1.33721,0.3577 -2.46161,1.39701 -3.78668,1.69325 -1.86056,0.41556 -3.83303,-2.03214 -5.89683,-1.88251 -1.28999,0.0935 -1.75901,1.05163 -1.75485,2.28699 0.008,2.40214 2.23465,5.47756 1.99627,7.66376 -1.50423,-0.2292 -3.34081,-0.63087 -4.84961,-1.11497 -3.363098,-1.07914 -6.594679,-2.60081 -9.710642,-4.25155 -2.384897,-1.26345 -4.590603,-3.55685 -6.020617,-5.39417 1.511158,-0.83796 4.800347,-1.89255 7.002402,-2.01294 1.192528,-0.0652 2.661861,0.96067 3.79352,0.48931 1.287694,-0.5364 1.842122,-4.33207 2.310554,-5.55556 -7.082908,-3.30391 -15.365464,-4.71869 -23.020459,-5.96688 -1.544244,-0.25182 -3.486585,-0.4774 -4.9746,-0.69186 -0.696776,-0.1005 -1.93665,-0.51988 -2.57096,-0.0502 -0.603569,0.447 -0.205666,1.70502 -0.138642,2.36383 0.215404,2.11749 1.393605,5.07711 0.846753,7.04295 -12.111496,-2.4565 -24.75708,-3.71793 -36.986861,-5.7086 -3.246741,-0.52845 -6.50401,-0.9889 -9.758226,-1.51024 -1.178134,-0.18872 -3.233567,-0.11029 -4.217263,-0.83681 -0.967629,-0.71468 -0.816005,-2.99454 -1.031083,-4.04386 -0.745528,-3.63733 -1.965897,-9.06558 -1.943415,-13.14956 0.009,-1.64318 3.111829,-1.95526 4.395021,-2.42288 1.043613,-0.3803 2.12046,-0.59939 3.078961,-0.93451 0.563843,-0.19714 1.046792,-0.28836 1.656876,-0.43202 3.031589,-0.71361 6.707643,-2.0541 9.584829,-3.2095 1.31741,-0.52905 2.542289,-0.99059 3.814164,-1.56966 5.293009,-2.40993 10.344375,-5.21139 15.257641,-8.24439 10.139316,-6.25948 19.2156,-12.70895 25.522613,-23.13326 7.439882,-12.29677 11.2358,-26.82791 14.609983,-40.50244 6.025308,-24.41878 8.406279,-49.99382 10.208861,-74.803402 0.24078,-3.313724 0.42341,-6.671623 0.62644,-10.00025 0.4704,-7.711794 0.6801,-15.40601 1.92002,-22.997612 0.58356,-3.572838 1.37193,-6.937014 2.35542,-10.38488 0.56949,-1.996557 1.06368,-3.924915 1.8728,-5.675772"
       id="path3" /><path
       style="fill:none;stroke:#343434;stroke-width:1"
       d="m 36.19701,143.84317 c 0.544445,0.44342 0.357957,1.45395 0.35555,2.12479 -0.0075,2.08935 -0.06814,4.17534 -0.05495,6.26551 0.04364,6.92224 -0.196026,38.69548 -0.153865,45.61494 0.01109,1.82438 0.782203,5.84804 -0.279404,7.30731 -0.628319,0.86369 -3.48234,0.44622 -4.478374,0.44594 -3.928478,-0.001 -7.913436,-0.13509 -11.814107,-0.11425 -0.991019,0.005 -3.412484,0.40888 -4.149812,-0.28297 -0.532643,-0.49979 -0.287456,-1.49166 -0.290196,-2.20057 -0.0078,-1.99453 -0.09131,-4.00555 -0.0052,-5.99507 0.30093,-6.95023 0.16407,-38.66615 0.120049,-45.59775 -0.01178,-1.85039 0.06422,-3.69818 0.06055,-5.54862 -0.0012,-0.66086 -0.119854,-1.5213 0.382565,-2.01326 0.81714,-0.80016 3.501668,-0.33084 4.601575,-0.33785 4.010455,-0.0256 8.013386,-0.0935 12.036977,0.0806 0.962911,0.0417 2.915594,-0.36214 3.66863,0.2512"
       id="path2"
       sodipodi:nodetypes="csssscsscsscsssc" /><path
       style="fill:none;stroke:#343434;stroke-width:1"
       d="m 72.093639,186.63847 c 0.444739,-1.36154 0.369814,-3.2824 0.663745,-5.11688 0.380847,-2.37695 0.504218,-5.08879 0.885793,-7.46445 2.091547,-13.02202 3.13981,-26.34519 5.364563,-39.43564 0.942179,-5.54377 1.963961,-11.34729 3.041977,-16.81879 0.386389,-1.9611 1.69908,-4.83905 1.430517,-6.80703 -0.271649,-1.99058 -2.724313,-4.46487 -3.648959,-6.30911 -1.988408,-3.96596 -2.92623,-8.50144 -2.692864,-12.915612 0.187779,-3.551852 1.4118,-7.0851 3.122429,-10.182889 0.785942,-1.423271 2.300444,-2.896938 2.804115,-4.414244 0.345865,-1.041906 -0.792885,-2.509295 -1.124717,-3.455686 -0.59946,-1.709673 -1.040817,-3.764796 -0.826245,-5.587105 0.337767,-2.86856 1.231974,-5.389484 2.787541,-7.838516 0.686013,-1.080033 2.33211,-2.340868 2.625138,-3.563367 0.325176,-1.356639 -2.623173,-4.334426 -3.237534,-5.655466 -1.813182,-3.898831 -1.69666,-8.195644 0.213373,-11.977262 2.910346,-5.762104 8.984468,-10.005333 14.539646,-13.066696 1.84876,-1.018807 5.729933,-1.954575 7.011163,-3.57773 0.70912,-0.898356 -1.27247,-3.708995 -1.69623,-4.619434 -1.22625,-2.634642 -2.56948,-5.233106 -3.838325,-7.812376 C 98.459271,7.8664673 97.485548,5.6319329 96.326418,3.5100532 94.826184,4.0853475 92.916565,5.0201975 91.340613,5.7778951 87.319903,7.710999 83.306014,9.7091053 79.191708,11.63679 65.092271,18.242839 51.217917,25.385566 37.103952,31.950507 c -4.599301,2.139309 -9.097532,4.695576 -14.079024,6.010431 -1.605511,0.42377 -3.314617,0.750565 -4.951563,1.065106 -0.44926,0.08633 -1.006163,0.07122 -1.271471,0.447581 -0.43735,0.620435 0.189499,2.113981 0.383232,2.878395 0.653455,2.57836 1.26822,5.186248 1.920001,7.75799 1.638486,6.464996 3.213068,12.922946 4.770306,19.394129 0.86178,3.581182 2.371918,7.266879 1.562693,10.957675 -2.031841,9.266967 -12.194289,11.659624 -17.4751343,18.3355 -0.8178894,1.033962 -1.3704007,2.107726 -1.6366468,3.377426 -0.1453889,0.69331 -0.1350615,1.26747 -0.1538361,1.92151 -0.04686,1.63184 -0.2173413,2.87337 0.5142058,4.50831 6.2532094,-4.53079 14.6636664,-8.34521 22.4844874,-8.13605 5.340162,0.14279 10.343647,1.88438 14.173498,5.75994 2.055738,2.08027 3.68933,4.5752 4.97859,7.1943 1.296412,2.63362 2.357393,5.45294 2.47726,8.41577 0.150725,3.72549 -1.461436,7.21897 -4.734713,9.18646 -2.977617,1.78973 -5.909239,1.49589 -8.615612,1.9904 0.827205,1.22169 2.367035,2.41752 3.965457,3.53556 2.515164,1.75926 5.479014,3.00375 8.458058,3.57045 1.883981,0.3584 3.677536,0.45526 5.555431,0.28448 0.568244,-0.0517 1.72186,-0.36481 2.129342,0.15943 0.450953,0.58002 0.267268,2.1384 0.316196,2.87254 0.172399,2.58666 0.241137,5.12998 0.549711,7.71913 0.884285,7.41974 2.298515,14.75629 3.971056,21.93932 0.547594,2.35176 0.883563,5.02208 1.968978,6.90343 0.683014,-1.66601 1.620411,-6.49625 2.582101,-8.05832 0.843006,2.05726 1.24002,4.3147 1.950459,6.68893 0.891097,2.97797 1.912771,5.84302 3.18451,8.43579"
       id="path1" /><path
       style="fill:none;stroke:#343434;stroke-width:1"
       d="m 143.0321,186.45856 c -0.39952,-1.37551 -0.26116,-3.29284 -0.49433,-5.13603 -0.30213,-2.38822 -0.33584,-5.10266 -0.63872,-7.48963 -1.66024,-13.08399 -2.26781,-26.43452 -4.05891,-39.59134 -0.75853,-5.57186 -1.58803,-11.40597 -2.4847,-16.91009 -0.32142,-1.97281 -1.53831,-4.89256 -1.20487,-6.8506 0.33725,-1.98051 2.87032,-4.37239 3.85539,-6.1851 2.11831,-3.8981 3.20546,-8.400142 3.11804,-12.8196 -0.0703,-3.556119 -1.17698,-7.127868 -2.78433,-10.28047 -0.7385,-1.448465 -2.2035,-2.971355 -2.65677,-4.504476 -0.31125,-1.05276 0.87535,-2.481731 1.23828,-3.416642 0.65559,-1.688938 1.1646,-3.728361 1.01036,-5.556762 -0.24282,-2.878152 -1.0533,-5.427243 -2.5271,-7.926324 -0.64995,-1.102105 -2.2535,-2.416625 -2.50598,-3.648142 -0.28019,-1.366641 2.76492,-4.245403 3.4226,-5.545426 1.94098,-3.83681 1.96647,-8.135125 0.18239,-11.977775 -2.71839,-5.855102 -8.64905,-10.29667 -14.10005,-13.539871 -1.81408,-1.079324 -5.66225,-2.142796 -6.88914,-3.807384 -0.67905,-0.921292 1.39429,-3.66494 1.84789,-4.560884 1.3126,-2.592698 2.74095,-5.145369 4.09432,-7.6813126 1.13006,-2.1175452 2.17707,-4.318694 3.40566,-6.4011255 1.48042,0.6245411 3.35811,1.6219629 4.90817,2.4313055 3.95466,2.0648739 7.90036,4.1944864 11.94872,6.2570306 13.87353,7.06821 27.50433,14.665363 41.39374,21.692968 4.52611,2.290076 8.93745,4.993546 13.87278,6.472241 1.59063,0.476576 3.28802,0.859652 4.91368,1.228092 0.44615,0.101122 1.00325,0.104422 1.256,0.489342 0.41661,0.634547 -0.25925,2.106566 -0.47812,2.864166 -0.73827,2.555365 -1.43886,5.141519 -2.17523,7.690329 -1.85116,6.407341 -3.63822,12.809752 -5.40838,19.225963 -0.97963,3.550755 -2.61069,7.184555 -1.92381,10.900072 1.72459,9.329029 11.80245,12.056081 16.85986,18.902755 0.7833,1.06042 1.30004,2.15188 1.52419,3.42964 0.12241,0.69774 0.0932,1.27126 0.0904,1.92557 -0.007,1.63249 0.12232,2.87896 -0.66286,4.48886 -6.10012,-4.73488 -14.37999,-8.82505 -22.20345,-8.87438 -5.34196,-0.0337 -10.40025,1.54165 -14.35603,5.28859 -2.12334,2.01122 -3.83846,4.45085 -5.21353,7.02593 -1.38272,2.58932 -2.53625,5.37206 -2.75394,8.32931 -0.27369,3.71849 1.22217,7.26332 4.42868,9.33784 2.91686,1.88714 5.85658,1.69031 8.54515,2.27392 -0.86711,1.19372 -2.4456,2.33803 -4.08009,3.40266 -2.5719,1.67519 -5.57526,2.8211 -8.57137,3.2891 -1.89482,0.29593 -3.69059,0.33352 -5.56181,0.10081 -0.56623,-0.0704 -1.70888,-0.4215 -2.13344,0.0889 -0.46988,0.56483 -0.33778,2.12842 -0.41094,2.86053 -0.25775,2.57956 -0.41045,5.11923 -0.8044,7.69677 -1.1289,7.38647 -2.78473,14.67229 -4.69366,21.79617 -0.62495,2.33238 -1.04895,4.99016 -2.19594,6.83462 -0.62762,-1.68768 -1.40492,-6.54623 -2.31449,-8.13923 -0.9105,2.02828 -1.38187,4.27139 -2.17035,6.62084 -0.98899,2.94691 -2.10475,5.77665 -3.46145,8.32599"
       id="path9" /></g></svg>
