<?xml version="1.0" encoding="UTF-8" standalone="no"?>
<!-- Created with Inkscape (http://www.inkscape.org/) -->

<svg
   width="370mm"
   height="400mm"
   viewBox="0 0 370 400"
   version="1.1"
   id="svg1"
   inkscape:version="1.3 (0e150ed6c4, 2023-07-21)"
   sodipodi:docname="Onderuit.svg"
   xmlns:inkscape="http://www.inkscape.org/namespaces/inkscape"
   xmlns:sodipodi="http://sodipodi.sourceforge.net/DTD/sodipodi-0.dtd"
   xmlns="http://www.w3.org/2000/svg"
   xmlns:svg="http://www.w3.org/2000/svg"
   xmlns:rdf="http://www.w3.org/1999/02/22-rdf-syntax-ns#"
   xmlns:cc="http://creativecommons.org/ns#"
   xmlns:dc="http://purl.org/dc/elements/1.1/">
  <title
     id="title27">Van Bart,Liam</title>
  <sodipodi:namedview
     id="namedview1"
     pagecolor="#ffffff"
     bordercolor="#000000"
     borderopacity="0.25"
     inkscape:showpageshadow="2"
     inkscape:pageopacity="0.0"
     inkscape:pagecheckerboard="0"
     inkscape:deskcolor="#d1d1d1"
     inkscape:document-units="mm"
     inkscape:zoom="0.82450631"
     inkscape:cx="492.41588"
     inkscape:cy="912.66736"
     inkscape:window-width="1920"
     inkscape:window-height="991"
     inkscape:window-x="-9"
     inkscape:window-y="-9"
     inkscape:window-maximized="1"
     inkscape:current-layer="layer1" />
  <defs
     id="defs1" />
  <g
     inkscape:label="Laag 1"
     inkscape:groupmode="layer"
     id="layer1">
    <rect
       style="fill:none;stroke:#030000;stroke-width:0.499999"
       id="rect1"
       width="150"
       height="250"
       x="63.451736"
       y="122.22877" />
    <circle
       style="fill:none;stroke:#030000;stroke-width:0.499999"
       id="path2"
       cx="157.27609"
       cy="210.95203"
       r="22.361004" />
    <circle
       style="fill:none;stroke:#030000;stroke-width:0.148916"
       id="path6"
       cx="139.43976"
       cy="212.64453"
       r="4.1552758" />
    <circle
       style="fill:none;stroke:#030000;stroke-width:0.148916"
       id="circle6"
       cx="165.14211"
       cy="194.63011"
       r="4.1552758" />
    <circle
       style="fill:none;stroke:#030000;stroke-width:0.148916"
       id="circle7"
       cx="167.65762"
       cy="225.64531"
       r="4.1552758" />
    <path
       sodipodi:type="star"
       style="fill:none;stroke:#030000;stroke-width:0.499999"
       id="path25"
       inkscape:flatsided="true"
       sodipodi:sides="3"
       sodipodi:cx="592.60217"
       sodipodi:cy="800.29517"
       sodipodi:r1="81.530289"
       sodipodi:r2="40.765144"
       sodipodi:arg1="0.9559116"
       sodipodi:arg2="2.0031091"
       inkscape:rounded="0"
       inkscape:randomized="0"
       d="M 639.63409,866.89236 511.41135,807.7274 626.76108,726.26573 Z"
       transform="matrix(0.27349759,0,0,0.27349759,-4.6853044,-7.7313441)"
       inkscape:transform-center-x="4.671191"
       inkscape:transform-center-y="-1.0163518" />
    <circle
       style="fill:none;stroke:#030000;stroke-width:0.833198"
       id="path1"
       cx="134.7411"
       cy="174.35933"
       r="20" />
    <circle
       style="fill:none;stroke:#030000;stroke-width:0.148916"
       id="circle8"
       cx="150.17075"
       cy="174.35933"
       r="4.1552758" />
    <circle
       style="fill:none;stroke:#030000;stroke-width:0.817698"
       id="path3"
       cx="124.30946"
       cy="250.75896"
       r="28" />
    <circle
       style="fill:none;stroke:#030000;stroke-width:0.148916"
       id="circle9"
       cx="148.52777"
       cy="250.88921"
       r="4.1552758" />
    <circle
       style="fill:none;stroke:#030000;stroke-width:0.148916"
       id="circle10"
       cx="99.830635"
       cy="250.75896"
       r="4.1552758" />
    <rect
       style="fill:none;stroke:#030000;stroke-width:0.499999"
       id="rect25"
       width="3"
       height="10"
       x="122.80946"
       y="245.75896" />
    <rect
       style="fill:none;stroke:#030000;stroke-width:0.499999"
       id="rect26"
       width="3"
       height="10"
       x="178.22556"
       y="265.98651" />
    <ellipse
       style="fill:none;stroke:#030000;stroke-width:0.586905"
       id="path4"
       cx="179.72556"
       cy="270.98651"
       rx="29.580099"
       ry="29.197891" />
    <circle
       style="fill:none;stroke:#030000;stroke-width:0.148916"
       id="circle11"
       cx="179.72556"
       cy="245.94389"
       r="4.1552758" />
    <circle
       style="fill:none;stroke:#030000;stroke-width:0.148916"
       id="circle12"
       cx="179.72556"
       cy="296.02911"
       r="4.1552758" />
    <circle
       style="fill:none;stroke:#030000;stroke-width:0.148916"
       id="circle13"
       cx="205.15038"
       cy="270.98651"
       r="4.1552758" />
    <circle
       style="fill:none;stroke:#030000;stroke-width:0.148916"
       id="circle14"
       cx="154.30074"
       cy="270.98651"
       r="4.1552758" />
    <path
       style="fill:none;stroke:#030000;stroke-width:0.499999"
       d="m 142.83423,270.98651 h 78.75602"
       id="path19" />
    <path
       style="fill:none;stroke:#030000;stroke-width:0.499999"
       d="m 179.59531,237.37289 v 68.097"
       id="path20" />
    <circle
       style="fill:none;stroke:#030000;stroke-width:0.590246"
       id="path5"
       cx="130.30229"
       cy="314.48322"
       r="35" />
    <circle
       style="fill:none;stroke:#030000;stroke-width:0.148916"
       id="circle15"
       cx="133.59238"
       cy="285.0177"
       r="4.1552758" />
    <circle
       style="fill:none;stroke:#030000;stroke-width:0.148916"
       id="circle16"
       cx="103.06039"
       cy="302.66537"
       r="4.1552758" />
    <circle
       style="fill:none;stroke:#030000;stroke-width:0.148916"
       id="circle17"
       cx="159.49828"
       cy="308.05588"
       r="4.1552758" />
    <circle
       style="fill:none;stroke:#030000;stroke-width:0.148916"
       id="circle18"
       cx="110.3126"
       cy="336.75433"
       r="4.1552758" />
    <circle
       style="fill:none;stroke:#030000;stroke-width:0.148916"
       id="circle19"
       cx="144.86909"
       cy="340.42087"
       r="4.1552758" />
    <path
       sodipodi:type="star"
       style="fill:none;stroke:#030000;stroke-width:0.499999"
       id="path21"
       inkscape:flatsided="true"
       sodipodi:sides="5"
       sodipodi:cx="112.14695"
       sodipodi:cy="312.67365"
       sodipodi:r1="33.86731"
       sodipodi:r2="27.399227"
       sodipodi:arg1="1.0471976"
       sodipodi:arg2="1.6755161"
       inkscape:rounded="0"
       inkscape:randomized="0"
       d="m 129.0806,342.0036 -39.595305,-4.16164 -8.277671,-38.94339 34.479426,-19.90671 29.58713,26.64038 z"
       inkscape:transform-center-x="-1.0939489"
       inkscape:transform-center-y="-2.1759191"
       transform="translate(17.905327,1.8705619)" />
    <rect
       style="fill:none;stroke:#030000;stroke-width:0.499999"
       id="rect26-8"
       width="3"
       height="10"
       x="128.80229"
       y="309.48322" />
    <rect
       style="fill:none;stroke:#030000;stroke-width:0.499999"
       id="rect25-9"
       width="3"
       height="10"
       x="155.77609"
       y="205.95203" />
    <rect
       style="fill:none;stroke:#030000;stroke-width:0.499999"
       id="rect25-8"
       width="3"
       height="10"
       x="133.2411"
       y="169.35933" />
    <path
       id="rect27"
       style="fill:none;stroke:#030000;stroke-width:0.3;stroke-dasharray:none"
       d="m 150.12262,170.15912 v 0.004 c -2.29919,0.0264 -4.14971,1.89678 -4.15168,4.19612 0.002,2.29935 1.85248,4.16968 4.15168,4.19613 v 0.004 0.045 l 11.93837,0.35418 v -9.16759 l -11.89031,0.36844 z"
       sodipodi:nodetypes="cccccccccc" />
    <path
       id="path28"
       style="fill:none;stroke:#030000;stroke-width:0.3;stroke-dasharray:none"
       d="m 161.61603,192.29794 0.003,0.003 c -1.33347,1.87319 -0.91273,4.47044 0.94386,5.82692 1.85894,1.35329 4.46047,0.96029 5.83665,-0.88176 l 0.003,0.003 0.0364,0.0265 7.32087,-9.4369 -7.40694,-5.40201 -6.70871,9.82386 z"
       sodipodi:nodetypes="cccccccccc" />
    <path
       id="path28-90"
       style="fill:none;stroke:#030000;stroke-width:0.3;stroke-dasharray:none"
       d="m 139.50744,216.9361 5.1e-4,-0.004 c 2.29692,-0.10571 4.08182,-2.0388 4.00447,-4.33684 -0.0813,-2.29792 -1.99521,-4.1033 -4.29395,-4.05042 l 5.1e-4,-0.004 -0.002,-0.045 -11.94349,0.0579 0.31624,9.16212 11.87052,-0.77837 z"
       sodipodi:nodetypes="cccccccccc" />
    <path
       id="path28-1"
       style="fill:none;stroke:#030000;stroke-width:0.3;stroke-dasharray:none"
       d="m 99.910526,254.88641 7.62e-4,-0.004 c 2.299152,0.0302 4.195172,-1.794 4.253772,-4.09259 0.0546,-2.29872 -1.74922,-4.21405 -4.04707,-4.29712 l 7.6e-4,-0.004 10e-4,-0.0451 -11.926027,-0.64809 -0.225778,9.1648 11.895764,-0.0755 z"
       sodipodi:nodetypes="cccccccccc" />
    <path
       id="path28-16"
       style="fill:none;stroke:#030000;stroke-width:0.3;stroke-dasharray:none"
       d="m 148.37769,246.65741 -2.6e-4,0.003 c -2.29933,0.003 -4.16866,1.85475 -4.19387,4.15395 -0.0213,2.29926 1.81024,4.18819 4.10906,4.23788 l -2.6e-4,0.003 -6.2e-4,0.045 11.93419,0.47483 0.0926,-9.1671 -11.89342,0.24823 z"
       sodipodi:nodetypes="cccccccccc" />
    <path
       id="path28-4"
       style="fill:none;stroke:#030000;stroke-width:0.3;stroke-dasharray:none"
       d="m 175.61006,246.12858 0.004,4.6e-4 c 0.0166,2.29929 1.87907,4.15776 4.17838,4.16953 2.29935,0.008 4.17754,-1.83469 4.21379,-4.13376 l 0.004,4.6e-4 0.045,4e-5 0.40504,-11.93676 -9.16749,-0.0391 0.31776,11.89176 z"
       sodipodi:nodetypes="cccccccccc" />
    <path
       id="path28-9"
       style="fill:none;stroke:#030000;stroke-width:0.3;stroke-dasharray:none"
       d="m 183.87147,295.83518 -0.004,-5.9e-4 c -0.0628,-2.29849 -1.96217,-4.1192 -4.26125,-4.08481 -2.29904,0.0383 -4.13987,1.91818 -4.12996,4.21751 l -0.004,-5.9e-4 -0.045,7.5e-4 -0.16534,11.94248 9.16643,-0.14497 -0.55642,-11.88299 z"
       sodipodi:nodetypes="cccccccccc" />
    <path
       id="path28-6"
       style="fill:none;stroke:#030000;stroke-width:0.3;stroke-dasharray:none"
       d="m 204.97188,266.89554 -6.9e-4,0.004 c -2.29932,0.0112 -4.16216,1.8693 -4.17934,4.16858 -0.0132,2.29932 1.82487,4.18183 4.12385,4.22349 l -6.9e-4,0.004 -1e-4,0.045 11.93577,0.43309 0.0606,-9.16738 -11.89248,0.28982 z"
       sodipodi:nodetypes="cccccccccc" />
    <path
       id="path28-60"
       style="fill:none;stroke:#030000;stroke-width:0.3;stroke-dasharray:none"
       d="m 154.61485,275.17642 4.8e-4,-0.004 c 2.29619,-0.12042 4.06866,-2.06492 3.97658,-4.36242 -0.096,-2.29735 -2.02147,-4.09042 -4.31983,-4.02281 l 4.9e-4,-0.004 -0.002,-0.045 -11.94287,0.13441 0.37497,9.15991 11.86528,-0.85446 z"
       sodipodi:nodetypes="cccccccccc" />
    <path
       id="path28-69"
       style="fill:none;stroke:#030000;stroke-width:0.3;stroke-dasharray:none"
       d="m 159.4643,303.79547 -7.7e-4,0.004 c -2.29906,-0.036 -4.19967,1.78344 -4.26404,4.08188 -0.0604,2.29857 1.73862,4.21843 4.03625,4.30728 l -7.7e-4,0.004 -0.001,0.045 11.92436,0.67808 0.24882,-9.1642 -11.89592,0.0456 z"
       sodipodi:nodetypes="cccccccccc" />
    <path
       id="path28-19"
       style="fill:none;stroke:#030000;stroke-width:0.3;stroke-dasharray:none"
       d="m 101.14123,306.33295 0.003,-0.003 c 2.01953,1.09932 4.54761,0.37026 5.67175,-1.63555 1.12069,-2.00775 0.41867,-4.54341 -1.57506,-5.68886 l 0.003,-0.003 0.022,-0.0392 -10.246427,-6.13685 -4.47516,8.00109 10.557217,5.48272 z"
       sodipodi:nodetypes="cccccccccc" />
    <path
       id="path28-2"
       style="fill:none;stroke:#030000;stroke-width:0.3;stroke-dasharray:none"
       d="m 129.31986,284.80016 0.004,4e-4 c -0.0659,2.2984 1.72873,4.22249 4.02615,4.31672 2.29758,0.0903 4.24066,-1.68367 4.35934,-3.97996 l 0.004,4.1e-4 0.045,0.001 0.83294,-11.91455 -9.1602,-0.36786 -0.10897,11.89551 z"
       sodipodi:nodetypes="cccccccccc" />
    <path
       id="path28-0"
       style="fill:none;stroke:#030000;stroke-width:0.3;stroke-dasharray:none"
       d="m 149.15012,340.34402 -0.004,-7.4e-4 c 0.0199,-2.29926 -1.81285,-4.18706 -4.11168,-4.23532 -2.29893,-0.0443 -4.20614,1.76815 -4.27887,4.06635 l -0.004,-7.4e-4 -0.045,-8.6e-4 -0.59445,11.92882 9.16572,0.18456 -0.12898,-11.89531 z"
       sodipodi:nodetypes="cccccccccc" />
    <path
       id="path28-20"
       style="fill:none;stroke:#030000;stroke-width:0.3;stroke-dasharray:none"
       d="m 113.28028,339.68339 -0.002,-0.003 c 1.64503,-1.60652 1.69238,-4.2372 0.10629,-5.90192 -1.58897,-1.66199 -4.21893,-1.7374 -5.90046,-0.16912 l -0.002,-0.003 -0.0309,-0.0328 -8.880846,7.98628 6.329476,6.63189 8.34718,-8.47583 z"
       sodipodi:nodetypes="cccccccccc" />
    <path
       id="path28-22"
       style="fill:none;stroke:#030000;stroke-width:0.3;stroke-dasharray:none"
       d="m 170.68559,222.78615 -0.003,0.002 c -1.48184,-1.75816 -4.10204,-1.99781 -5.87833,-0.53776 -1.7738,1.46311 -2.04138,4.08053 -0.60031,5.87228 l -0.004,0.002 -0.0347,0.0286 7.3152,9.44129 7.07719,-5.82734 -7.84249,-8.94486 z"
       sodipodi:nodetypes="cccccccccc" />
  </g>
  <metadata
     id="metadata27">
    <rdf:RDF>
      <cc:Work
         rdf:about="">
        <dc:title>Van Bart,Liam</dc:title>
      </cc:Work>
    </rdf:RDF>
  </metadata>
</svg>
