<?xml version="1.0" encoding="UTF-8" standalone="no"?>
<!-- Created with Inkscape (http://www.inkscape.org/) -->

<svg
   width="200mm"
   height="100mm"
   viewBox="0 0 200 100"
   version="1.1"
   id="svg1"
   inkscape:version="1.4.2 (unknown)"
   xml:space="preserve"
   sodipodi:docname="snowflake guirlandes.svg"
   xmlns:inkscape="http://www.inkscape.org/namespaces/inkscape"
   xmlns:sodipodi="http://sodipodi.sourceforge.net/DTD/sodipodi-0.dtd"
   xmlns="http://www.w3.org/2000/svg"
   xmlns:svg="http://www.w3.org/2000/svg"><sodipodi:namedview
     id="namedview1"
     pagecolor="#d5d5d5"
     bordercolor="#ffffff"
     borderopacity="1"
     inkscape:showpageshadow="0"
     inkscape:pageopacity="0"
     inkscape:pagecheckerboard="0"
     inkscape:deskcolor="#505050"
     inkscape:document-units="mm"
     inkscape:zoom="2.0649972"
     inkscape:cx="389.10464"
     inkscape:cy="160.77504"
     inkscape:window-width="2560"
     inkscape:window-height="1368"
     inkscape:window-x="1920"
     inkscape:window-y="0"
     inkscape:window-maximized="1"
     inkscape:current-layer="layer1" /><defs
     id="defs1" /><g
     inkscape:groupmode="layer"
     id="layer1"
     inkscape:label="Layer 1"><path
       id="path6"
       style="stroke-width:1.86401043;stroke-dasharray:none;baseline-shift:baseline;display:inline;overflow:visible;vector-effect:none;fill:#494215;stroke-linecap:round;stroke-linejoin:round;enable-background:accumulate;stop-color:#000000;stop-opacity:1;opacity:1"
       d="M 18.285175 -4.9472329 A 0.93200523 0.93200523 0 0 0 17.357407 -4.0118189 L 17.366768 -1.7778753 L 15.714928 -3.3299791 A 0.93200523 0.93200523 0 0 0 14.398491 -3.2891006 A 0.93200523 0.93200523 0 0 0 14.439489 -1.9707705 L 17.377744 0.78916378 L 17.384846 2.4677353 L 14.718723 0.37303391 A 0.93200523 0.93200523 0 0 0 13.408097 0.52920237 A 0.93200523 0.93200523 0 0 0 13.566276 1.8379516 L 17.394853 4.8453921 L 17.405183 7.2425302 L 13.331913 3.8690997 A 0.93200523 0.93200523 0 0 0 13.095936 3.7282607 A 0.93200523 0.93200523 0 0 0 12.474518 3.6503361 A 0.93200523 0.93200523 0 0 0 11.769492 4.7636352 L 12.869966 9.6815047 L 10.902413 8.5452115 L 9.8907126 3.3514124 A 0.93200523 0.93200523 0 0 0 8.7970178 2.6152809 A 0.93200523 0.93200523 0 0 0 8.0606784 3.7071827 L 8.7621539 7.3095964 L 7.444426 6.5491933 L 6.4023815 2.8436254 A 0.93200523 0.93200523 0 0 0 5.2538083 2.199151 A 0.93200523 0.93200523 0 0 0 4.6075341 3.3494963 L 5.132753 5.2142563 L 3.2694689 4.138642 A 0.93200523 0.93200523 0 0 0 2.568962 4.0431525 L 2.568962 5.8855571 L 4.2724529 6.8691949 L 2.568962 7.3747464 L 2.568962 9.3167923 A 0.93200523 0.93200523 0 0 0 2.6309423 9.3008241 L 6.4950292 8.1523951 L 7.9489847 8.9916808 L 4.7970261 10.24039 A 0.93200523 0.93200523 0 0 0 4.2734213 11.451095 A 0.93200523 0.93200523 0 0 0 5.4823608 11.97453 L 10.007571 10.18035 L 12.08585 11.380515 L 7.1190292 13.199287 A 0.93200523 0.93200523 0 0 0 6.6293199 13.618291 A 0.93200523 0.93200523 0 0 0 6.3555734 14.04496 A 0.93200523 0.93200523 0 0 0 6.978605 15.207122 L 11.896035 16.695672 L 9.8974917 17.840269 L 4.8241425 16.148284 A 0.93200523 0.93200523 0 0 0 3.646516 16.738148 A 0.93200523 0.93200523 0 0 0 4.2343608 17.915958 L 7.7297938 19.081633 L 6.3923743 19.847465 L 2.6680659 18.935684 A 0.93200523 0.93200523 0 0 0 2.568962 18.917161 L 2.568962 20.830464 L 4.0451917 21.191663 L 2.568962 22.037017 L 2.568962 23.793832 A 0.93200523 0.93200523 0 0 0 3.3634079 23.730599 L 5.1369495 22.715025 L 4.6172186 24.978669 A 0.93200523 0.93200523 0 0 0 5.3183712 26.0958 A 0.93200523 0.93200523 0 0 0 6.4356314 25.394479 L 7.3382201 21.45418 L 8.7795858 20.628946 L 8.3182842 23.972676 A 0.93200523 0.93200523 0 0 0 9.1133758 25.02338 A 0.93200523 0.93200523 0 0 0 10.164136 24.226569 L 10.821386 19.459439 L 12.880296 18.280351 L 12.037105 23.40421 A 0.93200523 0.93200523 0 0 0 12.195607 24.094353 A 0.93200523 0.93200523 0 0 0 12.425773 24.513676 A 0.93200523 0.93200523 0 0 0 13.74221 24.544974 L 17.463613 20.999726 L 17.473297 23.302972 L 13.500099 26.882711 A 0.93200523 0.93200523 0 0 0 13.431662 28.199125 A 0.93200523 0.93200523 0 0 0 14.748099 28.267468 L 17.48395 25.803264 L 17.490406 27.343232 L 14.861407 30.134783 A 0.93200523 0.93200523 0 0 0 14.900467 31.451197 A 0.93200523 0.93200523 0 0 0 16.216904 31.412235 L 17.502028 30.047916 L 17.509775 31.902457 A 0.93200523 0.93200523 0 0 0 18.445291 32.830206 A 0.93200523 0.93200523 0 0 0 19.373059 31.894473 L 19.364343 29.848953 L 21.078164 31.417983 A 0.93200523 0.93200523 0 0 0 22.396538 31.35954 A 0.93200523 0.93200523 0 0 0 22.337785 30.043126 L 19.35369 27.311934 L 19.346588 25.652205 L 22.029175 27.703154 A 0.93200523 0.93200523 0 0 0 23.335927 27.52942 A 0.93200523 0.93200523 0 0 0 23.160316 26.222587 L 19.336581 23.297543 L 19.326574 20.926912 L 23.369177 24.189523 A 0.93200523 0.93200523 0 0 0 24.090667 24.384335 A 0.93200523 0.93200523 0 0 0 24.496122 24.380822 A 0.93200523 0.93200523 0 0 0 25.18759 23.257942 L 24.001247 18.260231 L 25.993657 19.410577 L 27.084124 24.646531 A 0.93200523 0.93200523 0 0 0 28.187503 25.36925 A 0.93200523 0.93200523 0 0 0 28.910284 24.265532 L 28.15845 20.660563 L 29.491027 21.429908 L 30.578266 25.107372 A 0.93200523 0.93200523 0 0 0 31.7362 25.738433 A 0.93200523 0.93200523 0 0 0 32.367302 24.580104 L 31.836273 22.784007 L 33.441305 23.710798 A 0.93200523 0.93200523 0 0 0 34.13923 23.805968 A 0.93200523 0.93200523 0 0 0 34.938841 23.745928 L 37.540078 22.2561 L 37.142048 24.074233 A 0.93200523 0.93200523 0 0 0 37.854822 25.1837 A 0.93200523 0.93200523 0 0 0 38.964335 24.472479 L 39.721657 21.007072 L 40.749498 20.418486 L 39.925353 24.66218 A 0.93200523 0.93200523 0 0 0 40.661692 25.755679 A 0.93200523 0.93200523 0 0 0 41.755387 25.017631 L 42.885883 19.195007 L 44.140985 18.476121 L 43.7436 19.98032 A 0.93200523 0.93200523 0 0 0 44.405692 21.121084 A 0.93200523 0.93200523 0 0 0 45.546195 20.457129 L 46.412951 17.175036 L 49.016771 15.68425 L 49.03033 18.92259 L 46.425218 21.005794 A 0.93200523 0.93200523 0 0 0 46.280598 22.31646 A 0.93200523 0.93200523 0 0 0 47.591224 22.460812 L 49.040337 21.301524 L 49.047116 22.86289 L 44.464444 26.718558 A 0.93200523 0.93200523 0 0 0 44.351137 28.033056 A 0.93200523 0.93200523 0 0 0 45.665636 28.144513 L 49.057446 25.289409 L 49.062611 26.495643 L 46.386158 28.841683 A 0.93200523 0.93200523 0 0 0 46.300289 30.158097 A 0.93200523 0.93200523 0 0 0 47.616726 30.244005 L 49.072941 28.965276 L 49.085531 31.917786 A 0.93200523 0.93200523 0 0 0 50.021047 32.845536 A 0.93200523 0.93200523 0 0 0 50.948815 31.910122 L 50.936871 29.060127 L 52.153881 30.185562 A 0.93200523 0.93200523 0 0 0 53.470317 30.132867 A 0.93200523 0.93200523 0 0 0 53.417376 28.816453 L 50.925895 26.513208 L 50.92073 25.295477 L 54.095286 28.107467 A 0.93200523 0.93200523 0 0 0 55.411722 28.027307 A 0.93200523 0.93200523 0 0 0 55.331664 26.710893 L 50.910077 22.79774 L 50.904589 21.49921 L 52.050257 22.539056 A 0.93200523 0.93200523 0 0 0 53.366694 22.474544 A 0.93200523 0.93200523 0 0 0 53.302131 21.15813 L 50.893936 18.97273 L 50.87941 15.563531 L 53.527778 17.09264 L 54.173407 20.320122 A 0.93200523 0.93200523 0 0 0 55.269038 21.050824 A 0.93200523 0.93200523 0 0 0 55.999567 19.95509 L 55.675784 18.332727 L 57.030636 19.115166 L 58.149833 25.152402 A 0.93200523 0.93200523 0 0 0 59.237717 25.898434 A 0.93200523 0.93200523 0 0 0 59.983741 24.8126 L 59.154108 20.3412 L 60.368858 21.042521 L 60.839199 24.50186 A 0.93200523 0.93200523 0 0 0 61.888022 25.298671 A 0.93200523 0.93200523 0 0 0 62.686988 24.249883 L 62.410659 22.221609 L 65.017061 23.726447 A 0.93200523 0.93200523 0 0 0 65.024486 23.730279 A 0.93200523 0.93200523 0 0 0 66.244401 24.001099 L 70.993967 21.297053 L 70.544933 24.552 A 0.93200523 0.93200523 0 0 0 71.340024 25.602704 A 0.93200523 0.93200523 0 0 0 72.390785 24.805894 L 73.035122 20.134892 L 75.91398 18.495921 L 75.033342 23.848763 A 0.93200523 0.93200523 0 0 0 75.192813 24.537948 A 0.93200523 0.93200523 0 0 0 75.422011 24.956313 A 0.93200523 0.93200523 0 0 0 76.738447 24.989527 L 80.45985 21.44428 L 80.473409 24.650364 L 76.496337 28.2317 A 0.93200523 0.93200523 0 0 0 76.4279 29.548113 A 0.93200523 0.93200523 0 0 0 77.744337 29.618373 L 80.484062 27.149379 L 80.506013 32.34701 A 0.93200523 0.93200523 0 0 0 81.441529 33.274759 A 0.93200523 0.93200523 0 0 0 82.371234 32.339026 L 82.348314 27.005985 L 85.025413 29.054059 A 0.93200523 0.93200523 0 0 0 86.332165 28.87809 A 0.93200523 0.93200523 0 0 0 86.158168 27.571576 L 82.338307 24.65228 L 82.324103 21.372104 L 86.365415 24.63216 A 0.93200523 0.93200523 0 0 0 87.083677 24.82793 A 0.93200523 0.93200523 0 0 0 87.492359 24.825375 A 0.93200523 0.93200523 0 0 0 88.183828 23.702495 L 86.99684 18.703188 L 90.140728 20.518127 L 91.168246 25.452284 A 0.93200523 0.93200523 0 0 0 92.271625 26.175002 A 0.93200523 0.93200523 0 0 0 92.994406 25.071603 L 92.305198 21.767794 L 96.437543 24.153435 A 0.93200523 0.93200523 0 0 0 96.832345 24.274154 A 0.93200523 0.93200523 0 0 0 97.913773 24.38657 L 101.03571 22.598776 L 100.95662 24.76757 A 0.93200523 0.93200523 0 0 0 101.85534 25.732365 A 0.93200523 0.93200523 0 0 0 102.8199 24.833997 L 102.94096 21.507833 L 104.47368 20.629904 L 104.44495 23.296904 A 0.93200523 0.93200523 0 0 0 105.36691 24.238386 A 0.93200523 0.93200523 0 0 0 106.30824 23.316385 L 106.34923 19.555887 L 108.32938 18.421829 L 108.43526 19.626785 A 0.93200523 0.93200523 0 0 0 108.85556 20.326509 A 0.93200523 0.93200523 0 0 0 108.89624 20.519405 A 0.93200523 0.93200523 0 0 0 110.0758 21.105435 L 112.00881 20.455851 L 112.01882 22.794546 L 108.38845 24.636631 A 0.93200523 0.93200523 0 0 0 107.97815 25.89045 A 0.93200523 0.93200523 0 0 0 109.23229 26.298915 L 112.02754 24.880944 L 112.03657 26.981074 L 109.22228 28.375093 A 0.93200523 0.93200523 0 0 0 108.80036 29.622844 A 0.93200523 0.93200523 0 0 0 110.05062 30.044723 L 112.04529 29.055656 L 112.06014 32.558428 A 0.93200523 0.93200523 0 0 0 112.99598 33.486178 A 0.93200523 0.93200523 0 0 0 113.92342 32.550764 L 113.9089 29.084718 L 115.60916 29.951149 A 0.93200523 0.93200523 0 0 0 116.86297 29.54492 A 0.93200523 0.93200523 0 0 0 116.45493 28.291101 L 113.89986 26.9881 L 113.89147 24.980266 L 116.34937 26.269534 A 0.93200523 0.93200523 0 0 0 117.60706 25.877037 A 0.93200523 0.93200523 0 0 0 117.21645 24.619066 L 113.88243 22.869277 L 113.87242 20.523556 L 115.53491 21.181444 A 0.93200523 0.93200523 0 0 0 116.64539 20.838767 A 0.93200523 0.93200523 0 0 0 117.45082 19.994053 L 117.58446 18.357637 L 119.53103 19.481794 L 119.39609 23.267522 A 0.93200523 0.93200523 0 0 0 120.29481 24.232318 A 0.93200523 0.93200523 0 0 0 121.25938 23.33395 L 121.35816 20.53665 L 123.23403 21.619929 L 123.05455 24.720624 A 0.93200523 0.93200523 0 0 0 123.93131 25.7049 A 0.93200523 0.93200523 0 0 0 124.9159 24.830165 L 125.0405 22.662968 L 127.50583 24.086369 L 127.50583 21.933224 L 125.99248 21.059447 L 127.50583 20.129143 L 127.50583 18.130251 A 0.93200523 0.93200523 0 0 0 126.97448 18.267577 L 124.15664 19.999482 L 122.38858 18.979117 L 124.7829 17.296713 A 0.93200523 0.93200523 0 0 0 125.00951 15.997864 A 0.93200523 0.93200523 0 0 0 123.71083 15.771436 L 120.60794 17.950769 L 118.56485 16.771361 L 120.12662 15.556505 A 0.93200523 0.93200523 0 0 0 120.28868 14.248075 A 0.93200523 0.93200523 0 0 0 120.15439 14.110749 A 0.93200523 0.93200523 0 0 0 119.84158 13.44328 L 118.73368 12.463794 L 120.71382 11.329737 L 123.88063 13.334058 A 0.93200523 0.93200523 0 0 0 125.16769 13.044716 A 0.93200523 0.93200523 0 0 0 124.87684 11.757683 L 122.5445 10.281588 L 124.15728 9.3579901 L 126.63843 10.915842 A 0.93200523 0.93200523 0 0 0 127.50583 10.980354 L 127.50583 9.2609038 L 125.9899 8.3085636 L 127.50583 7.4405352 L 127.50583 5.2918615 L 124.89168 6.7890348 L 124.78096 4.2928943 A 0.93200523 0.93200523 0 0 0 123.80832 3.4021911 A 0.93200523 0.93200523 0 0 0 122.91961 4.3749706 L 123.07295 7.8304773 L 121.52441 8.7170287 L 121.32394 5.6738195 A 0.93200523 0.93200523 0 0 0 120.33161 4.8064299 A 0.93200523 0.93200523 0 0 0 119.46453 5.7967743 L 119.72343 9.7485709 L 117.78235 10.860273 L 117.35914 8.8064503 A 0.93200523 0.93200523 0 0 0 116.60698 8.0767061 A 0.93200523 0.93200523 0 0 0 115.46841 7.7439299 L 113.82141 8.449722 L 113.81173 6.1998103 L 117.64031 3.9668248 A 0.93200523 0.93200523 0 0 0 117.97636 2.6912893 A 0.93200523 0.93200523 0 0 0 117.40788 2.25983 A 0.93200523 0.93200523 0 0 0 116.70092 2.3553195 L 113.80269 4.0450687 L 113.79494 2.2125643 L 116.30257 0.5917975 A 0.93200523 0.93200523 0 0 0 116.57986 -0.69747058 A 0.93200523 0.93200523 0 0 0 115.29087 -0.97276141 L 113.78558 -0.00030133777 L 113.77138 -3.3631928 A 0.93200523 0.93200523 0 0 0 112.83554 -4.2909421 A 0.93200523 0.93200523 0 0 0 111.90809 -3.3555281 L 111.92262 0.046964373 L 110.1013 -1.0292886 A 0.93200523 0.93200523 0 0 0 108.82586 -0.70130293 A 0.93200523 0.93200523 0 0 0 109.15417 0.57423254 L 111.93166 2.2157579 L 111.94005 4.1926143 L 109.09735 2.8241443 A 0.93200523 0.93200523 0 0 0 107.85322 3.2597553 A 0.93200523 0.93200523 0 0 0 108.2887 4.5039932 L 111.94877 6.2652796 L 111.95878 8.5883255 L 110.1168 7.982494 A 0.93200523 0.93200523 0 0 0 109.18709 8.1894412 A 0.93200523 0.93200523 0 0 0 108.39426 8.961022 L 108.10341 10.73157 L 106.53969 9.8290504 L 106.45092 5.7070333 A 0.93200523 0.93200523 0 0 0 105.49959 4.7949328 A 0.93200523 0.93200523 0 0 0 104.58764 5.7459956 L 104.65252 8.7393841 L 102.65979 7.5890389 L 102.93321 4.3280242 A 0.93200523 0.93200523 0 0 0 102.08163 3.3223504 A 0.93200523 0.93200523 0 0 0 101.07606 4.1737719 L 100.87559 6.5587742 L 97.820157 4.7949328 A 0.93200523 0.93200523 0 0 0 97.582565 4.6991239 A 0.93200523 0.93200523 0 0 0 96.533419 4.6106604 L 92.262263 7.0422896 L 92.751972 3.8058659 A 0.93200523 0.93200523 0 0 0 91.968825 2.7452616 A 0.93200523 0.93200523 0 0 0 90.90838 3.5267427 L 90.199157 8.2169064 L 86.865454 10.11488 L 87.758036 5.0948146 A 0.93200523 0.93200523 0 0 0 87.22862 4.0856278 A 0.93200523 0.93200523 0 0 0 85.958992 4.0811567 L 82.264705 7.5101563 L 82.245659 3.1387167 L 86.168175 -0.30337674 A 0.93200523 0.93200523 0 0 0 86.254044 -1.6178745 A 0.93200523 0.93200523 0 0 0 84.937607 -1.7037831 L 82.235006 0.6684446 L 82.216929 -3.5768466 A 0.93200523 0.93200523 0 0 0 81.281413 -4.5045959 A 0.93200523 0.93200523 0 0 0 80.353645 -3.5691819 L 80.372691 0.90541188 L 77.650398 -1.2330422 A 0.93200523 0.93200523 0 0 0 76.342032 -1.0768737 A 0.93200523 0.93200523 0 0 0 76.498274 0.23155614 L 80.382698 3.2833881 L 80.401421 7.6870833 L 76.328151 4.3136529 A 0.93200523 0.93200523 0 0 0 76.109928 4.1795205 A 0.93200523 0.93200523 0 0 0 75.472693 4.0929731 A 0.93200523 0.93200523 0 0 0 74.765729 5.2062722 L 75.86814 10.12478 L 72.311695 8.0712769 L 71.254156 2.641788 A 0.93200523 0.93200523 0 0 0 70.160138 1.9056565 A 0.93200523 0.93200523 0 0 0 69.423799 2.9991551 L 70.171114 6.8353424 L 66.493614 4.7118984 A 0.93200523 0.93200523 0 0 0 66.493614 4.7115791 A 0.93200523 0.93200523 0 0 0 66.450679 4.6269479 A 0.93200523 0.93200523 0 0 0 65.886077 4.1894207 A 0.93200523 0.93200523 0 0 0 65.177177 4.2810779 L 62.385479 5.8798086 L 62.802232 4.0859471 A 0.93200523 0.93200523 0 0 0 62.104953 2.9668995 A 0.93200523 0.93200523 0 0 0 60.987693 3.6640687 L 60.179043 7.1432083 L 59.339081 7.6244882 L 60.036682 3.4590377 A 0.93200523 0.93200523 0 0 0 59.270967 2.3866171 A 0.93200523 0.93200523 0 0 0 58.198578 3.1524493 L 57.249827 8.8208217 L 55.633496 9.7463354 L 56.069941 8.1463272 A 0.93200523 0.93200523 0 0 0 55.415596 7.0020499 A 0.93200523 0.93200523 0 0 0 54.270897 7.6561051 L 53.342806 11.058278 L 50.866497 12.476569 L 50.852616 9.2666523 L 53.333444 7.1250046 A 0.93200523 0.93200523 0 0 0 53.431257 5.8105069 A 0.93200523 0.93200523 0 0 0 52.116757 5.714698 L 50.842286 6.8133064 L 50.836475 5.448988 L 55.368465 1.576074 A 0.93200523 0.93200523 0 0 0 55.470152 0.26157625 A 0.93200523 0.93200523 0 0 0 54.157589 0.15810267 L 50.826145 3.0045843 L 50.819689 1.5061335 L 53.348939 -0.58984527 A 0.93200523 0.93200523 0 0 0 53.472254 -1.9024268 A 0.93200523 0.93200523 0 0 0 52.841152 -2.2345643 A 0.93200523 0.93200523 0 0 0 52.159691 -2.0253816 L 50.809682 -0.90601456 L 50.796447 -4.0038348 A 0.93200523 0.93200523 0 0 0 49.860931 -4.9315841 A 0.93200523 0.93200523 0 0 0 48.933163 -3.9961701 L 48.946398 -0.86098439 L 47.538605 -1.9452215 A 0.93200523 0.93200523 0 0 0 46.231853 -1.7772366 A 0.93200523 0.93200523 0 0 0 46.401976 -0.46880673 L 48.956405 1.5007044 L 48.962539 2.9496539 L 45.841247 0.15427031 A 0.93200523 0.93200523 0 0 0 45.167534 -0.082058243 A 0.93200523 0.93200523 0 0 0 44.524811 0.22644633 A 0.93200523 0.93200523 0 0 0 44.597121 1.5428603 L 48.973191 5.4633594 L 48.979002 6.7861606 L 47.644165 5.6933007 A 0.93200523 0.93200523 0 0 0 46.333539 5.8242395 A 0.93200523 0.93200523 0 0 0 46.464279 7.136821 L 48.989009 9.2043765 L 49.002568 12.327746 L 46.605026 10.943627 L 45.601074 7.5915938 A 0.93200523 0.93200523 0 0 0 44.440879 6.9666006 A 0.93200523 0.93200523 0 0 0 43.815911 8.1268461 L 44.25171 9.5850571 L 42.955611 8.8367898 L 41.759261 3.0176782 A 0.93200523 0.93200523 0 0 0 40.657819 2.2930437 A 0.93200523 0.93200523 0 0 0 39.9331 3.3926102 L 40.795337 7.5893583 L 39.523772 6.8554623 L 39.020827 3.6251064 A 0.93200523 0.93200523 0 0 0 37.956509 2.8474578 A 0.93200523 0.93200523 0 0 0 37.179172 3.9122137 L 37.450659 5.6584901 L 34.845225 4.1542908 A 0.93200523 0.93200523 0 0 0 33.908095 4.1568457 A 0.93200523 0.93200523 0 0 0 33.601421 4.2657485 L 31.664536 5.3748958 L 32.199116 3.1738467 A 0.93200523 0.93200523 0 0 0 31.513781 2.0468149 A 0.93200523 0.93200523 0 0 0 30.386837 2.7344033 L 29.435503 6.6513894 L 27.978965 7.4855653 L 28.486429 4.1309773 A 0.93200523 0.93200523 0 0 0 27.703282 3.0703731 A 0.93200523 0.93200523 0 0 0 26.642514 3.8534509 L 25.914568 8.6675275 L 23.835644 9.8581124 L 24.761798 4.6502614 A 0.93200523 0.93200523 0 0 0 24.233028 3.6417133 A 0.93200523 0.93200523 0 0 0 22.962754 3.6366035 L 19.267822 7.0662418 L 19.258137 4.7920585 L 23.234241 1.3026993 A 0.93200523 0.93200523 0 0 0 23.320432 -0.011798403 A 0.93200523 0.93200523 0 0 0 22.005932 -0.097707026 L 19.247484 2.3237026 L 19.241028 0.80289639 L 21.915867 -1.9647026 A 0.93200523 0.93200523 0 0 0 21.894561 -3.2833521 A 0.93200523 0.93200523 0 0 0 20.576188 -3.2616354 L 19.22973 -1.8692131 L 19.220691 -4.0194836 A 0.93200523 0.93200523 0 0 0 18.285175 -4.9472329 z M 34.320329 6.0021246 L 36.656213 7.3507942 L 35.137372 7.9195795 A 0.93200523 0.93200523 0 0 0 34.53726 7.4354254 L 32.663323 6.9512712 L 34.320329 6.0021246 z M 65.458671 6.2684733 L 69.095497 8.3682844 L 66.160146 9.5323622 A 0.93200523 0.93200523 0 0 0 65.636864 10.74147 A 0.93200523 0.93200523 0 0 0 66.845804 11.264906 L 71.15602 9.5579113 L 75.081765 11.824111 L 70.115267 13.64384 A 0.93200523 0.93200523 0 0 0 69.625235 14.063483 A 0.93200523 0.93200523 0 0 0 69.351811 14.489513 A 0.93200523 0.93200523 0 0 0 69.974843 15.651675 L 74.654681 17.066772 L 72.22163 18.452168 L 67.050791 16.727928 A 0.93200523 0.93200523 0 0 0 65.873165 17.317472 A 0.93200523 0.93200523 0 0 0 66.461009 18.497199 L 70.045539 19.690977 L 65.871873 22.067037 L 63.452703 20.670463 L 65.054185 20.138724 A 0.93200523 0.93200523 0 0 0 65.643966 18.960914 A 0.93200523 0.93200523 0 0 0 64.46634 18.369134 L 61.292107 19.423032 L 60.146439 18.761631 L 64.231977 17.453201 A 0.93200523 0.93200523 0 0 0 64.83338 16.283055 A 0.93200523 0.93200523 0 0 0 63.663501 15.679779 L 57.965829 17.502702 L 56.817901 16.839705 L 58.352883 16.44146 A 0.93200523 0.93200523 0 0 0 59.021109 15.304528 A 0.93200523 0.93200523 0 0 0 57.884157 14.63674 L 54.51785 15.512113 L 51.927911 14.016856 L 54.31254 12.65126 L 57.71242 13.541006 A 0.93200523 0.93200523 0 0 0 58.850986 12.87705 A 0.93200523 0.93200523 0 0 0 58.18502 11.738202 L 56.62163 11.329098 L 58.052989 10.509293 L 63.640258 12.57621 A 0.93200523 0.93200523 0 0 0 64.837254 12.025309 A 0.93200523 0.93200523 0 0 0 64.286532 10.828018 L 60.161289 9.3021016 L 61.316318 8.6403816 L 64.425342 9.8769548 A 0.93200523 0.93200523 0 0 0 65.636219 9.3554352 A 0.93200523 0.93200523 0 0 0 65.114874 8.144411 L 63.383298 7.4568227 L 65.458671 6.2684733 z M 97.016026 6.4818077 L 99.833226 8.108323 L 97.88827 9.425695 A 0.93200523 0.93200523 0 0 0 97.640349 10.718795 A 0.93200523 0.93200523 0 0 0 98.935157 10.968857 L 101.62743 9.1443363 L 103.69183 10.336199 L 101.05831 11.759599 A 0.93200523 0.93200523 0 0 0 100.6832 13.021402 A 0.93200523 0.93200523 0 0 0 101.94508 13.39825 L 105.58707 11.430655 L 107.1411 12.327746 L 105.91182 13.263479 A 0.93200523 0.93200523 0 0 0 105.63581 14.405202 A 0.93200523 0.93200523 0 0 0 105.61903 14.425641 A 0.93200523 0.93200523 0 0 0 105.82789 15.726406 L 107.3577 16.830124 L 105.45633 17.918832 L 102.29856 15.906207 A 0.93200523 0.93200523 0 0 0 101.01344 16.191398 A 0.93200523 0.93200523 0 0 0 101.29654 17.478431 L 103.63017 18.964746 L 101.96445 19.918683 L 99.107217 18.203065 A 0.93200523 0.93200523 0 0 0 98.402191 18.097676 A 0.93200523 0.93200523 0 0 0 97.827904 18.523386 A 0.93200523 0.93200523 0 0 0 98.148136 19.802754 L 100.11149 20.979926 L 97.377901 22.545123 A 0.93200523 0.93200523 0 0 0 97.377578 22.545123 A 0.93200523 0.93200523 0 0 0 97.369185 22.540333 L 92.781671 19.891218 L 96.173804 18.497199 A 0.93200523 0.93200523 0 0 0 96.681913 17.280426 A 0.93200523 0.93200523 0 0 0 95.464904 16.774555 L 90.743422 18.714365 L 87.872635 17.056872 L 92.724856 15.208399 A 0.93200523 0.93200523 0 0 0 93.272026 14.641849 A 0.93200523 0.93200523 0 0 0 93.316575 14.528476 A 0.93200523 0.93200523 0 0 0 92.709038 13.356733 L 87.716393 11.776525 L 91.022656 9.8938811 L 96.142814 11.673052 A 0.93200523 0.93200523 0 0 0 97.330125 11.098837 A 0.93200523 0.93200523 0 0 0 96.755838 9.9133622 L 93.176473 8.6678468 L 97.016026 6.4818077 z M 22.523404 6.5884749 L 21.727666 11.065304 L 19.290742 12.46092 L 19.278475 9.6000672 L 22.523404 6.5884749 z M 14.178009 6.9905528 L 17.415513 9.6722432 L 17.426812 12.312097 L 15.064457 10.948417 L 14.178009 6.9905528 z M 85.519641 7.03207 L 84.758445 11.314727 L 82.286979 12.72152 L 82.275358 10.042065 L 85.519641 7.03207 z M 77.176506 7.4370222 L 80.411751 10.116796 L 80.42305 12.755053 L 78.062309 11.392012 L 77.176506 7.4370222 z M 30.345516 8.2785435 L 34.07047 9.2401452 A 0.93200523 0.93200523 0 0 0 34.255766 9.2669717 A 0.93200523 0.93200523 0 0 0 35.446628 9.7948786 L 38.746435 8.557986 L 39.895331 9.2213028 L 35.61094 10.742109 A 0.93200523 0.93200523 0 0 0 35.044401 11.933652 A 0.93200523 0.93200523 0 0 0 36.233972 12.499882 L 42.015898 10.44574 L 43.4408 11.268419 L 41.675329 11.740118 A 0.93200523 0.93200523 0 0 0 41.015174 12.880882 A 0.93200523 0.93200523 0 0 0 42.155677 13.541006 L 45.725357 12.587388 L 48.188753 14.00983 L 45.419652 15.595467 L 42.118553 14.63674 A 0.93200523 0.93200523 0 0 0 40.964169 15.271314 A 0.93200523 0.93200523 0 0 0 41.599145 16.425811 L 43.170928 16.883458 L 42.008473 17.54901 L 36.294338 15.751955 A 0.93200523 0.93200523 0 0 0 35.126396 16.361299 A 0.93200523 0.93200523 0 0 0 35.735869 17.52921 L 39.807203 18.809855 L 38.86168 19.351175 L 35.288449 18.369134 A 0.93200523 0.93200523 0 0 0 34.425243 18.570652 A 0.93200523 0.93200523 0 0 0 34.265773 18.603546 L 30.40556 19.805309 L 28.967099 18.974965 L 32.090005 17.691446 A 0.93200523 0.93200523 0 0 0 32.597792 16.474673 A 0.93200523 0.93200523 0 0 0 31.380782 15.966886 L 26.928204 17.797794 L 24.875429 16.612638 L 29.728618 14.763527 A 0.93200523 0.93200523 0 0 0 30.281599 14.185161 A 0.93200523 0.93200523 0 0 0 30.320337 14.083922 A 0.93200523 0.93200523 0 0 0 29.7128 12.914096 L 24.909001 11.392012 L 26.882688 10.261787 L 31.878884 12.000079 A 0.93200523 0.93200523 0 0 0 33.064581 11.425865 A 0.93200523 0.93200523 0 0 0 32.490294 10.238154 L 29.025852 9.0344755 L 30.345516 8.2785435 z M 115.63918 9.6987503 L 116.07918 11.835608 L 113.84111 13.117211 L 113.82981 10.474483 L 115.63918 9.6987503 z M 110.12196 9.9459372 L 111.96685 10.553365 L 111.97718 12.968068 L 109.83014 11.728621 L 110.12196 9.9459372 z M 14.18963 12.595053 L 16.612997 13.994501 L 14.122808 15.420456 L 9.9339697 14.152905 L 14.18963 12.595053 z M 22.711282 12.650622 L 26.710628 13.918173 L 22.793599 15.410556 L 20.352478 14.001207 L 22.711282 12.650622 z M 85.510603 13.03226 L 89.709125 14.361768 L 85.790805 15.85479 L 83.190536 14.353145 L 85.510603 13.03226 z M 77.1849 13.038328 L 79.442017 14.341329 L 76.88791 15.795388 L 72.930207 14.597777 L 77.1849 13.038328 z M 108.89236 13.339168 L 111.16368 14.650472 L 109.13318 15.813273 L 107.34027 14.518575 L 108.89236 13.339168 z M 117.02567 13.442003 L 118.32919 14.592987 L 116.82326 15.766007 L 114.90317 14.657498 L 117.02567 13.442003 z M 19.303654 15.547882 L 21.779317 16.97735 L 22.818779 21.350387 L 19.316244 18.524025 L 19.303654 15.547882 z M 17.441016 15.668601 L 17.452637 18.437478 L 14.238375 21.498891 L 14.964707 17.086892 L 17.441016 15.668601 z M 80.436285 15.921217 L 80.448875 18.880434 L 77.234613 21.942805 L 77.9971 17.309807 L 80.436285 15.921217 z M 82.30086 15.991797 L 84.775232 17.420307 L 85.815016 21.793982 L 82.313773 18.96762 L 82.30086 15.991797 z M 113.85434 16.203853 L 115.79833 17.326414 L 115.64273 19.218959 L 113.86403 18.51668 L 113.85434 16.203853 z M 111.99138 16.324892 L 112.00074 18.492408 L 110.25884 19.078439 L 110.11163 17.401464 L 111.99138 16.324892 z M 35.090886 20.247307 L 36.580029 20.657689 L 34.221547 22.008274 L 32.601988 21.07318 L 34.820368 20.382717 A 0.93200523 0.93200523 0 0 0 35.090886 20.247307 z "
       transform="matrix(1.60081 0 0 1.61811 -4.11242 30.4932)" /></g></svg>
